<svg width="30" height="30" viewBox="0 0 30 30" fill="none" xmlns="http://www.w3.org/2000/svg">
<path fill-rule="evenodd" clip-rule="evenodd" d="M18.955 7.60315C19.3489 7.60855 19.7437 7.61396 20.1398 7.61802C24.3965 7.61802 27.5 10.6527 27.5 14.8434V20.2264C27.5 24.4171 24.3965 27.4518 20.1398 27.4518C18.4347 27.488 16.7296 27.5 15.0123 27.5C13.2949 27.5 11.5653 27.488 9.86016 27.4518C5.60353 27.4518 2.5 24.4171 2.5 20.2264V14.8434C2.5 10.6527 5.60353 7.61802 9.87242 7.61802C11.4794 7.59393 13.1232 7.56985 14.7915 7.56985V7.36513C14.7915 6.5342 14.0922 5.85983 13.2581 5.85983H12.0437C10.6575 5.85983 9.52895 4.75193 9.52895 3.40318C9.52895 2.90944 9.94603 2.5 10.449 2.5C10.9642 2.5 11.369 2.90944 11.369 3.40318C11.369 3.76445 11.6757 4.05347 12.0437 4.05347H13.2581C15.1104 4.06551 16.6192 5.54672 16.6315 7.35308V7.58189C17.4048 7.58189 18.1781 7.59249 18.955 7.60315ZM13.5648 18.4321H12.2767V19.7086C12.2767 20.2023 11.8597 20.6118 11.3567 20.6118C10.8415 20.6118 10.4367 20.2023 10.4367 19.7086V18.4321H9.13641C8.63346 18.4321 8.21639 18.0347 8.21639 17.5289C8.21639 17.0352 8.63346 16.6257 9.13641 16.6257H10.4367V15.3613C10.4367 14.8675 10.8415 14.4581 11.3567 14.4581C11.8597 14.4581 12.2767 14.8675 12.2767 15.3613V16.6257H13.5648C14.0677 16.6257 14.4848 17.0352 14.4848 17.5289C14.4848 18.0347 14.0677 18.4321 13.5648 18.4321ZM18.7782 16.3969H18.9009C19.4038 16.3969 19.8209 15.9995 19.8209 15.4937C19.8209 15 19.4038 14.5906 18.9009 14.5906H18.7782C18.263 14.5906 17.8582 15 17.8582 15.4937C17.8582 15.9995 18.263 16.3969 18.7782 16.3969ZM20.8759 20.5395H20.9985C21.5015 20.5395 21.9185 20.1421 21.9185 19.6363C21.9185 19.1426 21.5015 18.7331 20.9985 18.7331H20.8759C20.3594 18.7331 19.9558 19.1426 19.9558 19.6363C19.9558 20.1421 20.3594 20.5395 20.8759 20.5395Z" fill="#606060"/>
</svg>
