<svg width="27" height="27" viewBox="0 0 27 27" fill="none" xmlns="http://www.w3.org/2000/svg">
<path d="M26.2895 25.5789H24.1579V6.39474C24.1684 6.23933 24.1266 6.08487 24.039 5.95606C23.9514 5.82726 23.8231 5.73154 23.6747 5.68421L18.4737 3.51V25.5789H17.0526V0.710526C17.0526 0.522083 16.9778 0.341358 16.8445 0.208108C16.7113 0.0748589 16.5305 0 16.3421 0H3.55263C3.36419 0 3.18346 0.0748589 3.05021 0.208108C2.91696 0.341358 2.84211 0.522083 2.84211 0.710526V25.5789H0.710526C0.522083 25.5789 0.341358 25.6538 0.208108 25.7871C0.0748589 25.9203 0 26.101 0 26.2895C0 26.4779 0.0748589 26.6586 0.208108 26.7919C0.341358 26.9251 0.522083 27 0.710526 27H26.2895C26.4779 27 26.6586 26.9251 26.7919 26.7919C26.9251 26.6586 27 26.4779 27 26.2895C27 26.101 26.9251 25.9203 26.7919 25.7871C26.6586 25.6538 26.4779 25.5789 26.2895 25.5789ZM20.6053 8.52632H22.0263C22.2148 8.52632 22.3955 8.60117 22.5287 8.73442C22.662 8.86767 22.7368 9.0484 22.7368 9.23684C22.7332 9.42415 22.6572 9.60277 22.5247 9.73523C22.3922 9.8677 22.2136 9.94373 22.0263 9.94737H20.6053C20.418 9.94373 20.2393 9.8677 20.1069 9.73523C19.9744 9.60277 19.8984 9.42415 19.8947 9.23684C19.8947 9.0484 19.9696 8.86767 20.1028 8.73442C20.2361 8.60117 20.4168 8.52632 20.6053 8.52632ZM20.6053 12.7895H22.0263C22.2148 12.7895 22.3955 12.8643 22.5287 12.9976C22.662 13.1308 22.7368 13.3116 22.7368 13.5C22.7368 13.6884 22.662 13.8692 22.5287 14.0024C22.3955 14.1357 22.2148 14.2105 22.0263 14.2105H20.6053C20.4168 14.2105 20.2361 14.1357 20.1028 14.0024C19.9696 13.8692 19.8947 13.6884 19.8947 13.5C19.8947 13.3116 19.9696 13.1308 20.1028 12.9976C20.2361 12.8643 20.4168 12.7895 20.6053 12.7895ZM20.6053 17.0526H22.0263C22.2136 17.0563 22.3922 17.1323 22.5247 17.2648C22.6572 17.3972 22.7332 17.5759 22.7368 17.7632C22.7368 17.9516 22.662 18.1323 22.5287 18.2656C22.3955 18.3988 22.2148 18.4737 22.0263 18.4737H20.6053C20.4168 18.4737 20.2361 18.3988 20.1028 18.2656C19.9696 18.1323 19.8947 17.9516 19.8947 17.7632C19.8984 17.5759 19.9744 17.3972 20.1069 17.2648C20.2393 17.1323 20.418 17.0563 20.6053 17.0526ZM20.6053 21.3158H22.0263C22.2148 21.3158 22.3955 21.3906 22.5287 21.5239C22.662 21.6571 22.7368 21.8379 22.7368 22.0263C22.7368 22.2148 22.662 22.3955 22.5287 22.5287C22.3955 22.662 22.2148 22.7368 22.0263 22.7368H20.6053C20.4168 22.7368 20.2361 22.662 20.1028 22.5287C19.9696 22.3955 19.8947 22.2148 19.8947 22.0263C19.8947 21.8379 19.9696 21.6571 20.1028 21.5239C20.2361 21.3906 20.4168 21.3158 20.6053 21.3158ZM11.3684 4.26316H12.7895C12.9779 4.26316 13.1586 4.33802 13.2919 4.47127C13.4251 4.60452 13.5 4.78524 13.5 4.97368C13.5 5.16213 13.4251 5.34285 13.2919 5.4761C13.1586 5.60935 12.9779 5.68421 12.7895 5.68421H11.3684C11.18 5.68421 10.9993 5.60935 10.866 5.4761C10.7328 5.34285 10.6579 5.16213 10.6579 4.97368C10.6579 4.78524 10.7328 4.60452 10.866 4.47127C10.9993 4.33802 11.18 4.26316 11.3684 4.26316ZM11.3684 8.52632H12.7895C12.9779 8.52632 13.1586 8.60117 13.2919 8.73442C13.4251 8.86767 13.5 9.0484 13.5 9.23684C13.5 9.42529 13.4251 9.60601 13.2919 9.73926C13.1586 9.87251 12.9779 9.94737 12.7895 9.94737H11.3684C11.18 9.94737 10.9993 9.87251 10.866 9.73926C10.7328 9.60601 10.6579 9.42529 10.6579 9.23684C10.6579 9.0484 10.7328 8.86767 10.866 8.73442C10.9993 8.60117 11.18 8.52632 11.3684 8.52632ZM11.3684 12.7895H12.7895C12.9779 12.7895 13.1586 12.8643 13.2919 12.9976C13.4251 13.1308 13.5 13.3116 13.5 13.5C13.5 13.6884 13.4251 13.8692 13.2919 14.0024C13.1586 14.1357 12.9779 14.2105 12.7895 14.2105H11.3684C11.18 14.2105 10.9993 14.1357 10.866 14.0024C10.7328 13.8692 10.6579 13.6884 10.6579 13.5C10.6579 13.3116 10.7328 13.1308 10.866 12.9976C10.9993 12.8643 11.18 12.7895 11.3684 12.7895ZM11.3684 17.0526H12.7895C12.9779 17.0526 13.1586 17.1275 13.2919 17.2607C13.4251 17.394 13.5 17.5747 13.5 17.7632C13.5 17.9516 13.4251 18.1323 13.2919 18.2656C13.1586 18.3988 12.9779 18.4737 12.7895 18.4737H11.3684C11.18 18.4737 10.9993 18.3988 10.866 18.2656C10.7328 18.1323 10.6579 17.9516 10.6579 17.7632C10.6579 17.5747 10.7328 17.394 10.866 17.2607C10.9993 17.1275 11.18 17.0526 11.3684 17.0526ZM7.02 4.26316H8.52632C8.71476 4.26316 8.89548 4.33802 9.02873 4.47127C9.16198 4.60452 9.23684 4.78524 9.23684 4.97368C9.23684 5.16213 9.16198 5.34285 9.02873 5.4761C8.89548 5.60935 8.71476 5.68421 8.52632 5.68421H7.10526C6.91682 5.68421 6.73609 5.60935 6.60285 5.4761C6.4696 5.34285 6.39474 5.16213 6.39474 4.97368C6.39474 4.78524 6.4696 4.60452 6.60285 4.47127C6.73609 4.33802 6.91682 4.26316 7.10526 4.26316H7.02ZM7.02 8.52632H8.52632C8.71476 8.52632 8.89548 8.60117 9.02873 8.73442C9.16198 8.86767 9.23684 9.0484 9.23684 9.23684C9.23684 9.42529 9.16198 9.60601 9.02873 9.73926C8.89548 9.87251 8.71476 9.94737 8.52632 9.94737H7.10526C6.91682 9.94737 6.73609 9.87251 6.60285 9.73926C6.4696 9.60601 6.39474 9.42529 6.39474 9.23684C6.39474 9.0484 6.4696 8.86767 6.60285 8.73442C6.73609 8.60117 6.91682 8.52632 7.10526 8.52632H7.02ZM7.02 12.7895H8.52632C8.71476 12.7895 8.89548 12.8643 9.02873 12.9976C9.16198 13.1308 9.23684 13.3116 9.23684 13.5C9.23684 13.6884 9.16198 13.8692 9.02873 14.0024C8.89548 14.1357 8.71476 14.2105 8.52632 14.2105H7.10526C6.91682 14.2105 6.73609 14.1357 6.60285 14.0024C6.4696 13.8692 6.39474 13.6884 6.39474 13.5C6.39474 13.3116 6.4696 13.1308 6.60285 12.9976C6.73609 12.8643 6.91682 12.7895 7.10526 12.7895H7.02ZM7.02 17.0526H8.52632C8.71476 17.0526 8.89548 17.1275 9.02873 17.2607C9.16198 17.394 9.23684 17.5747 9.23684 17.7632C9.23684 17.9516 9.16198 18.1323 9.02873 18.2656C8.89548 18.3988 8.71476 18.4737 8.52632 18.4737H7.10526C6.91682 18.4737 6.73609 18.3988 6.60285 18.2656C6.4696 18.1323 6.39474 17.9516 6.39474 17.7632C6.39474 17.5747 6.4696 17.394 6.60285 17.2607C6.73609 17.1275 6.91682 17.0526 7.10526 17.0526H7.02ZM10.6579 25.5789V22.7368H9.23684V25.5789H7.81579V21.9837C7.82667 21.8027 7.9063 21.6328 8.03839 21.5086C8.17048 21.3844 8.34503 21.3155 8.52632 21.3158H11.3684C11.5569 21.3158 11.7376 21.3906 11.8708 21.5239C12.0041 21.6571 12.0789 21.8379 12.0789 22.0263V25.5789H10.6579Z" fill="#A9A9A9"/>
</svg>
