<svg width="30" height="30" viewBox="0 0 30 30" fill="none" xmlns="http://www.w3.org/2000/svg">
<path fill-rule="evenodd" clip-rule="evenodd" d="M5.675 2.5H9.9C11.6625 2.5 13.075 3.9375 13.075 5.70125V9.9625C13.075 11.7375 11.6625 13.1625 9.9 13.1625H5.675C3.925 13.1625 2.5 11.7375 2.5 9.9625V5.70125C2.5 3.9375 3.925 2.5 5.675 2.5ZM5.675 16.8371H9.9C11.6625 16.8371 13.075 18.2634 13.075 20.0384V24.2996C13.075 26.0621 11.6625 27.4996 9.9 27.4996H5.675C3.925 27.4996 2.5 26.0621 2.5 24.2996V20.0384C2.5 18.2634 3.925 16.8371 5.675 16.8371ZM24.3251 2.5H20.1001C18.3376 2.5 16.9251 3.9375 16.9251 5.70125V9.9625C16.9251 11.7375 18.3376 13.1625 20.1001 13.1625H24.3251C26.0751 13.1625 27.5001 11.7375 27.5001 9.9625V5.70125C27.5001 3.9375 26.0751 2.5 24.3251 2.5ZM20.1001 16.8371H24.3251C26.0751 16.8371 27.5001 18.2634 27.5001 20.0384V24.2996C27.5001 26.0621 26.0751 27.4996 24.3251 27.4996H20.1001C18.3376 27.4996 16.9251 26.0621 16.9251 24.2996V20.0384C16.9251 18.2634 18.3376 16.8371 20.1001 16.8371Z" fill="#606060"/>
</svg>
