<svg width="538" height="539" viewBox="0 0 538 539" fill="none" xmlns="http://www.w3.org/2000/svg">
<path d="M109.741 258.572C109.889 258.686 110.038 258.799 110.188 258.912C119.017 265.6 129.847 271.348 143.22 275.199C145.881 275.764 148.539 276.332 151.2 276.898C154.965 271.182 157.522 265.071 150.097 260.64C138.567 253.762 143.797 231.74 149.171 224.839C155.824 216.298 170.908 196.092 153.25 185.177C138.55 176.09 127.208 173.232 131.277 152.372C135.345 131.512 127.354 115.841 108.394 112.359C88.4414 108.693 78.9344 78.4893 60.6501 83.177C28.7889 91.3435 42.7446 143.097 73.5103 164.833C104.276 186.569 81.6317 193.922 76.4681 210.53C69.4182 233.204 101.721 236.132 107.649 247.233C109.658 250.993 110.112 254.897 109.743 258.57L109.741 258.572Z" fill="url(#paint0_linear_120_1685)"/>
<mask id="mask0_120_1685" style="mask-type:luminance" maskUnits="userSpaceOnUse" x="42" y="82" width="120" height="200">
<path d="M105.643 271.014L148.497 281.471C152.472 276.01 158.39 265.591 150.097 260.642C138.567 253.764 143.797 231.743 149.171 224.841C155.824 216.3 170.908 196.094 153.25 185.179C138.55 176.092 127.208 173.234 131.277 152.374C135.345 131.514 127.354 115.843 108.394 112.361C88.4414 108.695 78.9344 78.4913 60.6501 83.179C28.7889 91.3455 42.7446 143.099 73.5103 164.835C104.276 186.571 81.6317 193.924 76.4681 210.532C69.4182 233.206 101.721 236.134 107.649 247.235C112.298 255.94 108.642 265.408 105.643 271.012V271.014Z" fill="white"/>
</mask>
<g mask="url(#mask0_120_1685)">
<g style="mix-blend-mode:soft-light" opacity="0.5">
<path d="M127.463 269.191L128.419 269.234C131.548 199.386 100.782 128.359 48.1262 83.8739L47.5092 84.604C99.9437 128.902 130.58 199.632 127.463 269.191Z" fill="#FCFDFE"/>
<path d="M125.91 230.963L126.837 231.194C133.46 204.528 161.44 189.415 161.723 189.266L161.276 188.421C160.989 188.573 132.638 203.878 125.912 230.963H125.91Z" fill="#FCFDFE"/>
<path d="M127.691 256.326L128.616 256.088C121.696 229.104 73.4382 213.529 72.9505 213.375L72.6623 214.286C73.1445 214.438 120.903 229.854 127.691 256.326Z" fill="#FCFDFE"/>
<path d="M107.313 165.008L108.255 164.851C104.612 143.054 124.968 115.971 125.173 115.699L124.411 115.12C124.203 115.394 103.6 142.81 107.311 165.008H107.313Z" fill="#FCFDFE"/>
<path d="M85.5021 126.335L86.1838 125.666C68.5535 107.695 34.5696 106.75 34.2278 106.743L34.2075 107.699C34.5455 107.706 68.1471 108.643 85.5021 126.335Z" fill="#FCFDFE"/>
</g>
</g>
<mask id="mask1_120_1685" style="mask-type:luminance" maskUnits="userSpaceOnUse" x="50" y="20" width="143" height="285">
<path d="M167.012 304.136L119.614 303.976C119.614 303.976 110.774 279.618 122.448 262.489C146.265 227.54 114.01 209.107 101.656 199.366C83.0229 184.674 73.0078 163.596 100.509 154.528C128.008 145.459 100.55 102.771 67.0405 83.3822C34.25 64.4096 49.037 -4.86147 123.778 29.6844C168.412 50.3151 161.25 97.7152 163.321 122.512C165.392 147.309 202.232 149.485 189.52 179.726C178.66 205.556 158.128 224.349 173.687 242.185C189.246 260.021 190.794 279.968 167.014 304.136H167.012Z" fill="white"/>
</mask>
<g mask="url(#mask1_120_1685)">
<path d="M167.012 304.136L119.614 303.976C119.614 303.976 110.773 279.618 122.448 262.489C146.265 227.54 114.01 209.107 101.656 199.366C83.0228 184.674 74.8552 165.744 97.3628 153.559C122.83 139.773 100.55 102.771 67.0386 83.3822C34.2481 64.4096 49.0351 -4.86147 123.776 29.6844C168.41 50.3151 161.248 97.7152 163.319 122.512C165.39 147.309 202.23 149.485 189.518 179.726C178.658 205.556 158.126 224.349 173.685 242.185C189.244 260.021 190.792 279.968 167.012 304.136Z" fill="url(#paint1_linear_120_1685)"/>
<g style="mix-blend-mode:soft-light" opacity="0.5">
<path d="M146.483 308.469L145.5 308.286C145.615 307.676 156.788 246.609 149.622 182.728C143.021 123.876 119.046 50.5239 42.3307 35.2889L42.5247 34.3074C76.675 41.0894 103.393 59.7496 121.934 89.7723C136.747 113.756 146.396 144.999 150.618 182.635C157.797 246.662 146.596 307.859 146.483 308.469Z" fill="#BEB8F2"/>
<path d="M129.143 102.652L128.151 102.525C132.378 69.4725 119.946 22.4588 119.82 21.9874L120.787 21.7286C120.912 22.2018 133.396 69.406 129.143 102.652Z" fill="#BEB8F2"/>
<path d="M116.238 82.9866C82.6257 61.8753 51.121 71.8422 50.8069 71.9457L50.4947 70.9956C50.8143 70.8903 82.7458 60.7681 116.77 82.14L116.238 82.9885V82.9866Z" fill="#BEB8F2"/>
<path d="M152.033 224.745C141.005 177.506 76.8819 165.711 76.2464 165.648L76.2797 164.648C76.9078 164.65 141.881 176.857 153.006 224.516L152.033 224.743V224.745Z" fill="#BEB8F2"/>
<path d="M152.41 204.745L151.431 204.538C157.834 174.253 190.761 153.511 191.094 153.304L191.622 154.154C191.293 154.358 158.724 174.881 152.412 204.745H152.41Z" fill="#BEB8F2"/>
<path d="M147.046 298.635C145.666 280.258 119.499 265.622 119.235 265.476L119.717 264.6C120.814 265.204 146.622 279.641 148.042 298.56L147.045 298.635H147.046Z" fill="#BEB8F2"/>
<path d="M149.886 284.21L148.899 284.038C151.399 269.683 173.153 253.757 180.301 248.524C181.311 247.784 182.183 247.145 182.316 247.001L183.061 247.668C182.876 247.875 182.298 248.3 180.892 249.33C173.824 254.503 152.315 270.252 149.886 284.208V284.21Z" fill="#BEB8F2"/>
</g>
</g>
<path d="M382.309 277.14C387.526 288.412 382.555 299.687 377.783 307.277C376.645 307.284 375.983 307.6 374.834 307.88C364.457 310.405 359.591 309.12 349.042 309.883C346.771 310.048 340.026 308.355 337.316 307.471L332.291 305.737C332.291 305.737 323.373 278.319 337.386 270.744C351.401 263.171 346.034 235.882 344.859 221C341.672 180.62 385.284 184.292 385.333 132.074C385.346 118.187 380.73 91.6966 392.433 80.6354C405.766 68.0326 415.499 80.3951 424.071 69.857C437.47 53.3854 459.213 47.4777 472.173 64.4281C484.965 81.1585 469.422 114.462 430.785 141.228C405.24 163.572 404.841 170.262 406.851 186.552C408.259 197.963 419.138 227.686 403.658 239.557C388.178 251.426 376.347 264.252 382.313 277.138L382.309 277.14Z" fill="url(#paint2_linear_120_1685)"/>
<mask id="mask2_120_1685" style="mask-type:luminance" maskUnits="userSpaceOnUse" x="329" y="54" width="148" height="263">
<path d="M371.047 316.506L333.135 306.735C333.135 306.735 323.372 278.321 337.385 270.746C351.399 263.173 346.032 235.884 344.857 221.002C341.671 180.622 385.282 184.293 385.332 132.076C385.345 118.189 380.728 91.6984 392.431 80.6372C405.764 68.0344 415.497 80.3969 424.069 69.8589C437.469 53.3872 459.211 47.4796 472.171 64.4299C484.963 81.1604 469.42 114.464 430.783 141.23C405.238 163.574 404.839 170.264 406.849 186.554C408.257 197.965 419.136 227.688 403.657 239.559C388.177 251.428 376.347 264.254 382.311 277.14C391.386 296.748 371.049 316.505 371.049 316.505L371.047 316.506Z" fill="white"/>
</mask>
<g mask="url(#mask2_120_1685)">
<g style="mix-blend-mode:soft-light" opacity="0.5">
<path d="M354.533 310.31L353.762 310.214C354.335 305.623 354.969 301 355.645 296.473C360.664 262.955 368.627 231.119 379.316 201.848C388.374 177.047 399.509 153.736 412.413 132.562C422.791 115.536 434.365 99.7928 446.811 85.7723C455.561 75.9163 464.65 67.0048 473.825 59.2875C475.423 57.9418 477.134 56.6572 478.787 55.4131C480.991 53.7569 483.269 52.0434 485.301 50.1765L485.826 50.7495C483.766 52.6423 481.471 54.3669 479.254 56.0361C477.608 57.2727 475.907 58.5537 474.325 59.8846C465.181 67.576 456.119 76.4616 447.393 86.2898C434.976 100.277 423.432 115.982 413.077 132.969C400.198 154.099 389.086 177.362 380.046 202.116C369.375 231.337 361.424 263.123 356.413 296.589C355.737 301.111 355.103 305.726 354.533 310.312V310.31Z" fill="#FCFDFE"/>
<path d="M398.445 159.372L397.743 159.043C411.892 128.869 399.468 73.1195 399.341 72.5613L400.098 72.3894C400.226 72.9513 412.711 128.958 398.447 159.374L398.445 159.372Z" fill="#FCFDFE"/>
<path d="M366.257 247.254L365.521 247.008C372.739 225.375 413.215 208.676 413.624 208.51L413.915 209.229C413.511 209.394 373.362 225.958 366.257 247.252V247.254Z" fill="#FCFDFE"/>
<path d="M363.221 259.882L362.453 259.77C364.594 245.037 359.648 223.801 348.525 199.974C348.151 199.175 347.972 198.727 347.985 198.63L348.756 198.732L348.371 198.68L348.746 198.584C348.774 198.667 348.985 199.12 349.23 199.645C360.417 223.608 365.386 245.001 363.223 259.881L363.221 259.882Z" fill="#FCFDFE"/>
<path d="M355.696 301.944L354.993 301.617C361.895 286.744 385.483 280.875 385.72 280.818L385.902 281.572C385.668 281.63 362.44 287.412 355.696 301.944Z" fill="#FCFDFE"/>
<path d="M353.359 310.369C350.435 297.475 343.714 284.999 332.814 272.228L333.405 271.724C344.39 284.593 351.165 297.177 354.117 310.198L353.359 310.369Z" fill="#FCFDFE"/>
<path d="M440.197 94.6652L439.514 94.2974C448.315 77.9588 453.778 58.7533 455.572 52.4427C456.006 50.9158 456.161 50.3779 456.248 50.2005L456.946 50.5406C456.882 50.6774 456.634 51.5498 456.32 52.6571C454.519 58.9881 449.041 78.2546 440.199 94.667L440.197 94.6652Z" fill="#FCFDFE"/>
<path d="M421.959 119.111L421.414 118.558C433.811 106.349 468.598 106.739 470.074 106.762L470.062 107.538C469.703 107.532 434.125 107.129 421.959 119.111Z" fill="#FCFDFE"/>
</g>
</g>
<mask id="mask3_120_1685" style="mask-type:luminance" maskUnits="userSpaceOnUse" x="312" y="125" width="198" height="264">
<path d="M320.75 374.796L365.978 388.979C365.978 388.979 381.764 368.435 375.812 348.577C363.668 308.059 399.984 300.247 414.704 294.698C436.905 286.33 452.821 269.267 429.347 252.306C405.873 235.344 444.947 202.959 482.748 194.613C519.738 186.447 526.573 115.945 444.892 126.265C396.111 132.427 388.616 179.776 379.15 202.785C369.684 225.795 333.908 216.726 336.889 249.396C339.435 277.302 353.328 301.427 333.108 313.723C312.887 326.019 305.385 344.562 320.75 374.794V374.796Z" fill="white"/>
</mask>
<g mask="url(#mask3_120_1685)">
<path d="M320.75 374.796L365.978 388.979C365.978 388.979 381.764 368.435 375.812 348.577C363.668 308.059 399.984 300.247 414.704 294.698C436.905 286.33 450.41 270.757 432.638 252.333C412.528 231.488 444.947 202.957 482.748 194.613C519.738 186.447 526.573 115.945 444.892 126.265C396.111 132.427 388.616 179.776 379.15 202.785C369.684 225.795 333.908 216.726 336.889 249.396C339.435 277.302 353.328 301.427 333.108 313.723C312.887 326.019 305.385 344.562 320.75 374.794V374.796Z" fill="#E38DDD"/>
<g style="mix-blend-mode:soft-light" opacity="0.5">
<path d="M339.01 385.134L340.004 385.256C340.08 384.641 347.882 323.05 374.014 264.326C398.09 210.225 443.105 147.559 520.835 156.243L520.946 155.248C486.345 151.382 455.239 161.09 428.492 184.097C407.126 202.477 388.487 229.34 373.092 263.938C346.903 322.797 339.088 384.519 339.01 385.134Z" fill="#BEB8F2"/>
<path d="M417.73 194.196L418.715 194.375C424.673 161.591 450.73 120.538 450.992 120.126L450.15 119.586C449.885 119.998 423.725 161.219 417.732 194.196H417.73Z" fill="#BEB8F2"/>
<path d="M435.972 179.354C474.392 169.398 501.409 188.43 501.677 188.622L502.263 187.811C501.991 187.615 474.612 168.306 435.721 178.386L435.972 179.354Z" fill="#BEB8F2"/>
<path d="M359.018 303.65C383.804 261.956 448.491 270.112 449.115 270.243L449.387 269.28C448.786 269.092 383.166 261.075 358.159 303.138L359.018 303.65Z" fill="#BEB8F2"/>
<path d="M364.703 284.473L365.699 284.571C368.747 253.766 343.627 224.033 343.372 223.738L342.613 224.388C342.864 224.682 367.709 254.097 364.703 284.473Z" fill="#BEB8F2"/>
<path d="M341.443 375.592C348.312 358.492 377.676 352.457 377.973 352.398L377.777 351.416C376.549 351.66 347.586 357.616 340.516 375.219L341.443 375.592Z" fill="#BEB8F2"/>
<path d="M343.095 360.982L344.087 361.117C346.042 346.679 330.118 324.917 324.886 317.765C324.147 316.754 323.508 315.882 323.425 315.704L322.512 316.114C322.627 316.368 323.048 316.948 324.077 318.355C329.25 325.425 344.994 346.941 343.093 360.98L343.095 360.982Z" fill="#BEB8F2"/>
</g>
</g>
<path d="M363.561 386.258C363.391 386.337 363.223 386.415 363.053 386.495C352.994 391.129 341.183 394.415 327.296 395.301C324.576 395.282 321.857 395.264 319.139 395.245C316.689 388.853 315.503 382.336 323.706 379.605C336.444 375.365 336.064 352.734 332.297 344.84C327.632 335.069 317.24 312.092 336.828 305.227C353.136 299.512 364.827 299.159 365.331 277.91C365.837 256.662 377.005 243.074 396.27 243.749C416.544 244.459 432.314 217.002 449.165 225.51C478.528 240.333 453.787 287.879 419.074 302.497C384.36 317.113 404.896 329.163 406.374 346.492C408.392 370.152 376.214 366.067 368.041 375.637C365.272 378.877 363.992 382.592 363.563 386.258H363.561Z" fill="url(#paint3_linear_120_1685)"/>
<mask id="mask4_120_1685" style="mask-type:luminance" maskUnits="userSpaceOnUse" x="317" y="223" width="146" height="178">
<path d="M364.893 399.29L320.794 400.292C318.084 394.105 314.543 382.655 323.704 379.607C336.442 375.367 336.062 352.736 332.295 344.841C327.63 335.07 317.238 312.094 336.827 305.229C353.134 299.513 364.825 299.16 365.329 277.912C365.835 256.664 377.003 243.076 396.269 243.751C416.543 244.461 432.312 217.004 449.163 225.512C478.527 240.335 453.785 287.881 419.072 302.499C384.358 317.114 404.894 329.165 406.372 346.494C408.39 370.154 376.213 366.069 368.039 375.639C361.631 383.14 363.169 393.175 364.893 399.291V399.29Z" fill="white"/>
</mask>
<g mask="url(#mask4_120_1685)">
<g style="mix-blend-mode:soft-light" opacity="0.5">
<path d="M343.973 392.822L343.03 392.659C354.969 323.769 400.266 261.014 461.244 228.884L461.689 229.73C400.968 261.725 355.861 324.22 343.973 392.824V392.822Z" fill="#FCFDFE"/>
<path d="M353.698 355.819L352.742 355.845C351.998 328.377 327.916 307.604 327.674 307.397L328.293 306.669C328.539 306.878 352.944 327.919 353.699 355.819H353.698Z" fill="#FCFDFE"/>
<path d="M346.513 380.208L345.659 379.777C358.211 354.912 408.687 350.071 409.195 350.026L409.282 350.978C408.779 351.024 358.826 355.816 346.513 380.208Z" fill="#FCFDFE"/>
<path d="M386.021 295.401L385.134 295.044C393.372 274.539 379.307 243.712 379.163 243.403L380.029 243C380.173 243.313 394.41 274.517 386.021 295.401Z" fill="#FCFDFE"/>
<path d="M415.624 262.319L415.101 261.518C436.177 247.757 469.572 254.137 469.908 254.204L469.723 255.143C469.393 255.076 436.373 248.771 415.624 262.319Z" fill="#FCFDFE"/>
</g>
</g>
<path d="M383.386 20.712V485.263C383.386 492.21 377.454 493.705 370.727 493.925L140.183 505.855L136.69 505.97C129.523 506.205 123.648 500.515 123.648 493.326V12.649C123.648 5.46034 129.522 -0.227374 136.69 0.00553228L141.43 0.160803L372.819 18.1667C379.545 18.3866 383.386 13.7636 383.386 20.7101V20.712Z" fill="url(#paint4_linear_120_1685)"/>
<path d="M390.567 20.712V485.263C390.567 492.21 385.073 498.075 378.346 498.295L143.871 505.97C136.704 506.205 130.829 500.515 130.829 493.326V12.649C130.829 5.46034 136.703 -0.227374 143.871 0.00553228L378.346 7.68034C385.073 7.90031 390.567 13.7636 390.567 20.712Z" fill="url(#paint5_linear_120_1685)"/>
<path d="M382.98 46.2503V476.602C382.98 483.088 377.846 488.556 371.561 488.753L151.08 495.683C144.408 495.892 138.942 490.585 138.942 483.888V39.5145C138.942 32.8175 144.408 27.4977 151.08 27.6918L371.561 34.1244C377.846 34.3074 382.98 39.7641 382.98 46.2503Z" fill="#E0DDEE"/>
<path d="M267.27 18.3034C267.27 20.7508 265.321 22.6769 262.915 22.603C260.508 22.5309 258.555 20.4846 258.555 18.0336C258.555 15.5825 260.508 13.6582 262.915 13.734C265.321 13.8098 267.27 15.8561 267.27 18.3034Z" fill="#DE8BDF"/>
<path d="M348.763 307.595L172.676 309.957C170.45 309.987 168.643 308.203 168.643 305.974V267.395C168.643 265.165 170.45 263.345 172.676 263.33L348.763 262.138C350.878 262.123 352.591 263.871 352.591 266.043V303.61C352.591 305.782 350.878 307.564 348.763 307.593V307.595Z" fill="#F4F7FA" fill-opacity="0.62"/>
<path d="M348.364 378.657L173.097 382.831C170.639 382.89 168.643 380.94 168.643 378.478V340.743C168.643 338.281 170.639 336.25 173.097 336.207L348.364 333.2C350.699 333.159 352.593 335.07 352.593 337.47V374.215C352.593 376.613 350.701 378.602 348.364 378.657Z" fill="#F4F7FA" fill-opacity="0.62"/>
<path d="M330.983 146.866C330.983 185.587 300.197 216.983 261.838 216.989C223.049 216.994 191.286 184.97 191.286 145.457C191.286 105.945 223.051 74.5595 261.838 75.347C300.197 76.1252 330.983 108.14 330.983 146.864V146.866Z" fill="white"/>
<path d="M290.348 125.183C290.348 141.139 277.616 153.953 261.859 153.805C246.042 153.657 233.18 140.516 233.18 124.455C233.18 108.394 246.044 95.5821 261.859 95.8353C277.616 96.0885 290.348 109.227 290.348 125.183Z" fill="url(#paint6_linear_120_1685)"/>
<path d="M261.84 216.991C278.796 216.989 294.263 210.854 306.24 200.695C302.165 179.602 283.895 163.559 261.84 163.393C239.645 163.225 221.041 179.175 216.864 200.499C229.111 210.81 244.801 216.996 261.84 216.993V216.991Z" fill="url(#paint7_linear_120_1685)"/>
<path d="M286.079 291.186L189.976 292.236C186.706 292.271 184.029 289.615 184.029 286.332C184.029 283.049 186.706 280.339 189.976 280.31L286.079 279.424C289.256 279.395 291.854 282.016 291.854 285.247C291.854 288.478 289.256 291.151 286.079 291.186Z" fill="url(#paint8_linear_120_1685)"/>
<path d="M198.406 358.897C198.406 363.091 195.021 366.565 190.84 366.653C186.656 366.744 183.258 363.409 183.258 359.206C183.258 355.002 186.656 351.529 190.84 351.448C195.021 351.366 198.406 354.701 198.406 358.895V358.897Z" fill="url(#paint9_linear_120_1685)"/>
<path d="M226.742 358.317C226.742 362.494 223.385 365.953 219.238 366.041C215.086 366.13 211.717 362.81 211.717 358.624C211.717 354.437 215.086 350.978 219.238 350.899C223.383 350.819 226.742 354.139 226.742 358.317Z" fill="url(#paint10_linear_120_1685)"/>
<path d="M254.849 357.742C254.849 361.901 251.518 365.346 247.406 365.435C243.288 365.524 239.946 362.217 239.946 358.047C239.946 353.877 243.288 350.433 247.406 350.354C251.518 350.274 254.849 353.581 254.849 357.742Z" fill="url(#paint11_linear_120_1685)"/>
<path d="M282.729 357.171C282.729 361.313 279.426 364.744 275.345 364.833C271.26 364.921 267.946 361.625 267.946 357.474C267.946 353.322 271.26 349.891 275.345 349.812C279.424 349.732 282.729 353.028 282.729 357.171Z" fill="url(#paint12_linear_120_1685)"/>
<path d="M310.386 356.605C310.386 360.731 307.108 364.147 303.061 364.235C299.009 364.322 295.721 361.041 295.721 356.906C295.721 352.771 299.009 349.355 303.061 349.276C307.108 349.198 310.386 352.479 310.386 356.605Z" fill="url(#paint13_linear_120_1685)"/>
<path d="M261.829 218.71C242.59 218.71 224.468 211.09 210.797 197.253C197.109 183.399 189.569 165.005 189.569 145.459C189.569 125.913 197.218 107.396 211.105 93.7779C224.752 80.3969 242.778 73.2378 261.875 73.6297C280.865 74.016 298.678 81.848 312.032 95.6837C325.361 109.494 332.701 127.669 332.701 146.866C332.701 166.062 325.356 184.103 312.019 197.652C298.656 211.227 280.836 218.706 261.838 218.708H261.827L261.829 218.71ZM260.405 77.0549C242.763 77.0549 226.158 83.8351 213.511 96.2364C200.288 109.2 193.006 126.682 193.006 145.461C193.006 164.239 200.192 181.632 213.241 194.837C226.262 208.015 243.519 215.272 261.831 215.274H261.842C299.02 215.268 329.269 184.582 329.269 146.869C329.269 109.157 299.005 77.8257 261.807 77.0716C261.339 77.0623 260.87 77.0568 260.406 77.0568L260.405 77.0549Z" fill="white"/>
<path style="mix-blend-mode:multiply" opacity="0.3" d="M390.567 20.4477C390.567 13.5529 385.101 7.90217 378.215 7.67851L250.349 3.49359C297.779 53.7828 308.442 95.9758 309.66 124.808C313.135 207.109 242.272 242.965 255.448 332.971C259.06 357.644 267.048 373.141 270.168 415.765C272.829 452.104 270.048 482.18 267.277 501.933L378.346 498.297C385.073 498.077 390.567 492.214 390.567 485.265V20.4477Z" fill="url(#paint14_linear_120_1685)"/>
<path style="mix-blend-mode:multiply" opacity="0.3" d="M201.247 252.304C202.596 212.66 189.019 196.088 185.42 192.027C182.88 189.16 180.526 187.129 162.957 172.617C149.904 161.835 139.025 152.897 131.304 146.564C131.147 257.622 130.99 368.677 130.833 479.735C136.093 437.107 146.204 404.959 153.895 384.432C175.427 326.969 199.518 303.17 201.247 252.302V252.304Z" fill="url(#paint15_linear_120_1685)"/>
<path d="M426.982 410.151C434.673 405.502 431.45 380.873 420.145 363.905C404.094 339.812 370.496 329.279 363.975 336.878C357.3 344.655 378.38 372.121 381.803 376.581C394.225 392.766 417.886 415.65 426.982 410.151Z" fill="url(#paint16_linear_120_1685)"/>
<path d="M514.308 512.031C512.991 513.776 512.923 516.78 514.323 518.133C515.701 519.462 517.484 518.214 522.825 517.898C528.548 517.56 530.157 518.776 533.941 517.36C535.469 516.787 538.144 515.489 537.991 514.375C537.884 513.591 536.439 513.31 531.593 512.151C524.715 510.508 524.733 510.382 523.292 510.275C519.677 510.001 516.047 509.728 514.306 512.033L514.308 512.031Z" fill="url(#paint17_linear_120_1685)"/>
<path d="M514.201 502.589L520.211 510.563C520.185 511.12 518.038 513.739 515.309 513.591L508.09 506.364L514.201 502.587V502.589Z" fill="url(#paint18_linear_120_1685)"/>
<path d="M483.258 532.334C481.976 534.107 481.972 537.113 483.402 538.434C484.808 539.734 486.563 538.449 491.898 538.02C497.613 537.562 499.248 538.743 503.002 537.248C504.518 536.643 507.164 535.288 506.988 534.177C506.865 533.395 505.414 533.146 500.545 532.09C493.633 530.591 493.648 530.467 492.207 530.388C488.586 530.192 484.952 529.994 483.26 532.334H483.258Z" fill="url(#paint19_linear_120_1685)"/>
<path d="M483.025 523.081L489.035 531.055C489.009 531.612 486.862 534.231 484.134 534.083L476.914 526.856L483.025 523.079V523.081Z" fill="url(#paint20_linear_120_1685)"/>
<path d="M301.045 340.834C310.04 337.387 323.832 333.255 340.982 332.614C360.291 331.893 375.801 331.314 386.85 340.045C423.613 369.093 405.593 445.643 402.934 454.159C399.775 464.287 393.763 471.167 393.763 471.167C390.157 475.295 386.619 477.705 384.703 478.973C357.051 497.28 339.86 508.661 321.709 504.01C319.294 503.391 308.32 499.583 302.262 490.448C301.184 488.82 300.507 486.733 300.337 483.818C297.518 435.63 303.199 387.247 301.045 340.83V340.834Z" fill="url(#paint21_linear_120_1685)"/>
<path style="mix-blend-mode:multiply" opacity="0.3" d="M316.902 398.269C313.212 388.18 317.026 376.628 308.81 371.589C305.799 369.742 302.057 368.962 297.984 369.053C298.488 404.523 299.203 439.958 300.082 476.975C300.373 489.201 301.9 489.805 313.752 500.515C327.482 512.924 338.781 508.922 359.064 504.852C332.489 488.517 325.88 479.633 328.587 465.117C331.741 448.211 362.678 443.205 361.427 431.187C360.101 418.449 324.964 420.325 316.902 398.269Z" fill="url(#paint22_linear_120_1685)"/>
<path d="M309.525 341.475C300.397 336.374 279.404 350.888 267.933 363.4C262.601 369.215 244.042 389.463 249.815 415.514C250.755 419.759 255.099 439.608 274.429 448.688C291.736 456.817 314.579 453.705 332.487 440.603C334.922 438.499 337.357 436.396 339.794 434.292C342.173 431.791 344.553 429.29 346.934 426.789C342.942 424.02 336.189 420.065 326.823 417.715C312.551 414.135 306.129 419.15 302.604 415.262C298.263 410.477 307.942 402.225 310.48 381.156C311.165 375.47 319.723 347.172 309.527 341.473L309.525 341.475Z" fill="url(#paint23_linear_120_1685)"/>
<path d="M326.1 498.193C327.223 518.268 334.767 507.147 351.841 489.136C369.824 470.167 412.136 436.826 440.377 449.555C461.41 459.034 459.368 487.077 492.994 504.678C498.917 507.778 504.103 509.556 507.29 510.523C510.933 507.151 514.576 503.781 518.217 500.41C516.263 489.927 507.537 449.956 471.054 424.76C462.234 418.667 445.402 406.935 424.117 407.208C366.574 407.952 325.062 479.679 326.098 498.193H326.1Z" fill="url(#paint24_linear_120_1685)"/>
<path d="M299.587 488.881C299.827 500.561 307.45 511.268 316.039 516.495C335.103 528.098 363.652 515.578 379.641 502.776C399.099 487.199 399.091 471.936 409.034 472.012C424.483 472.128 427.176 509.09 461.652 527.135C467.575 530.235 472.759 532.013 475.947 532.98C479.591 529.608 483.232 526.238 486.875 522.867C480.897 500.232 471.641 483.787 464.815 473.55C456.302 460.782 448.106 448.492 432.235 439.586C415.525 430.207 399.559 429.773 392.775 429.667C349.984 429 298.961 458.411 299.589 488.885L299.587 488.881Z" fill="url(#paint25_linear_120_1685)"/>
<path d="M415.75 418.721L309.82 437.834L340.56 445.893L417.368 425.556L415.75 418.721Z" fill="url(#paint26_linear_120_1685)"/>
<path d="M306.643 441.372C307.029 443.35 308.612 444.875 310.602 445.187L346.941 451.814L345.299 442.606L309.82 437.836C307.849 437.664 306.262 439.431 306.643 441.374V441.372Z" fill="url(#paint27_linear_120_1685)"/>
<path d="M323.663 433.054C322.987 433.035 325.308 424.702 328.469 424.992C331.628 425.283 347.9 430.895 349.91 434.124L351.922 437.353C351.922 437.353 345.644 439.1 341.432 438.545C337.218 437.991 329.167 433.198 323.665 433.054H323.663Z" fill="url(#paint28_linear_120_1685)"/>
<path d="M342.053 376.465L339.729 445.952C339.65 448.35 343.245 451.64 345.624 451.344L456.076 436.081C457.894 435.856 459.309 434.397 459.481 432.575L468.349 364.958C468.58 362.505 464.039 360.335 461.589 360.59L345.548 372.714C343.61 372.918 342.12 374.518 342.055 376.467L342.053 376.465Z" fill="url(#paint29_linear_120_1685)"/>
<path d="M344.743 378.282L342.417 447.771C342.338 450.169 344.418 452.071 346.797 451.777L458.766 437.9C460.582 437.675 461.999 436.216 462.171 434.394L468.567 366.659C468.798 364.204 466.727 362.152 464.277 362.409L348.236 374.533C346.299 374.735 344.808 376.337 344.743 378.286V378.282Z" fill="url(#paint30_linear_120_1685)"/>
<path style="mix-blend-mode:multiply" opacity="0.3" d="M414.664 425.015C404.536 421.601 407.396 413.403 395.057 404.397C378.779 392.517 363.63 399.36 357.405 389.665C355.467 386.644 354.283 381.807 356.639 373.652L348.236 374.53C346.299 374.731 344.808 376.334 344.743 378.282L342.417 447.771C342.338 450.169 344.418 452.071 346.797 451.777L458.766 437.9C460.582 437.675 461.999 436.216 462.171 434.394L463.054 425.046C459.5 423.407 455.295 421.991 450.467 421.388C433.728 419.297 426.325 428.946 414.664 425.017V425.015Z" fill="url(#paint31_linear_120_1685)"/>
<path d="M341.798 306.151C342.125 313.312 341.539 319.022 340.93 322.941C340.231 327.431 339.649 328.605 338.888 329.569C338.888 329.569 338.648 329.874 338.373 330.148C337.675 330.845 328.894 332.557 326.305 333.161C326.032 333.226 320.962 334.459 319.508 337.185C319.497 337.204 319.47 337.257 319.455 337.338C318.954 340.065 334.521 348.71 350.165 345.901C359.739 344.181 368.291 338.359 367.646 335.494C366.996 332.61 357.44 334.529 354.377 329.383C352.247 325.802 354.289 320.532 356.768 316.137C354.03 311.436 344.534 310.85 341.796 306.149L341.798 306.151Z" fill="url(#paint32_linear_120_1685)"/>
<path d="M362.336 314.503C368.453 312.726 372.399 291.648 367.252 289.101C364.792 287.883 362.968 292.247 353.158 296.153C345.306 299.279 341.988 298.268 339.816 301.715C337.669 305.122 338.988 310.053 339.664 313.551C339.958 315.068 340.939 315.784 341.713 317.053C342.785 318.813 344.457 321.604 347.165 326.253C347.693 325.176 348.425 323.858 349.43 322.475C349.818 321.943 351.357 319.872 355.915 316.776C358.826 314.797 361.636 314.708 362.336 314.504V314.503Z" fill="url(#paint33_linear_120_1685)"/>
<path d="M342.805 321.882C342.805 321.882 345.323 329.239 353.3 330.464C360.443 331.562 364.962 315.991 361.204 311.643C359.949 310.194 357.047 309.064 354.453 309.21C352.92 309.296 352.299 309.787 349.794 309.88C347.481 309.965 346.917 309.586 346.134 309.994C345.155 310.508 344.174 312.077 344.532 317.002C343.489 315.344 341.992 314.466 340.73 314.752C340.529 314.798 339.973 315.02 339.59 315.458C338.209 317.044 339.347 319.713 342.803 321.88L342.805 321.882Z" fill="url(#paint34_linear_120_1685)"/>
<path d="M346.025 308.979C346.31 309.308 344.99 310.345 344.518 312.124C343.598 315.573 346.199 320.532 349.714 321.68C351.793 322.359 352.659 321.207 356.254 321.612C358.481 321.863 360.228 322.54 361.313 323.041C361.573 327.104 359.694 330.682 356.753 331.886C353.587 333.181 350.332 331.252 348.972 330.444C348.061 329.904 345.144 328.181 344.137 324.933C343.088 321.547 345.17 320.107 343.653 317.639C342.888 316.395 341.685 315.663 340.856 313.397C340.631 312.782 340.507 312.253 340.437 311.902C342.679 310.377 345.615 308.508 346.025 308.983V308.979Z" fill="url(#paint35_linear_120_1685)"/>
<path d="M358.444 323.891C358.444 323.891 356.748 324.349 354.152 323.621C354.026 323.586 353.877 323.591 353.845 323.654C353.731 323.891 355.168 325.381 356.818 325.288C357.989 325.222 359.077 324.366 358.989 324.068C358.95 323.943 358.697 323.902 358.442 323.891H358.444Z" fill="url(#paint36_linear_120_1685)"/>
<path d="M8.77724 240.411C5.84163 231.782 7.89785 221.863 12.4278 214.932C20.0837 203.216 30.0618 207.288 40.0565 194.297C46.5227 185.894 52.405 178.717 59.5842 173.341C64.8661 169.387 77.3623 164.909 82.2432 168.018C96.8492 177.321 70.05 256.531 40.5036 261.04C28.6818 262.844 13.1908 253.381 8.77724 240.413V240.411Z" fill="url(#paint37_linear_120_1685)"/>
<path d="M64.8254 490.546C65.605 492.212 66.4863 494.65 66.7191 497.685C66.8207 499.016 66.78 500.221 66.6747 501.267C65.8175 502.532 61.8085 506.874 56.3955 507.946C53.046 508.609 47.6163 505.768 53.7684 501.924C59.9186 498.079 60.8386 497.153 59.0299 487.324C58.5644 484.796 58.7473 483.872 59.1445 483.692C60.0719 483.276 62.7138 487.154 64.8273 490.546H64.8254Z" fill="url(#paint38_linear_120_1685)"/>
<path d="M93.1894 498.053C93.9691 499.718 94.8503 502.156 95.0831 505.192C95.1847 506.523 95.144 507.728 95.0387 508.774C94.1815 510.038 90.1725 514.38 84.7595 515.452C81.41 516.116 75.9804 513.275 82.1324 509.43C88.2826 505.585 89.2026 504.659 87.394 494.831C86.9284 492.302 87.1113 491.378 87.5085 491.199C88.4359 490.783 91.0778 494.661 93.1913 498.053H93.1894Z" fill="url(#paint39_linear_120_1685)"/>
<path d="M122.688 292.722C124.722 305.112 126.754 317.503 128.788 329.891C124.334 341.612 120.194 354.383 116.684 368.175C104.008 417.996 96.1047 465.978 95.5265 500.351C92.7368 501.362 89.9453 502.371 87.1556 503.38C82.1564 484.491 83.6658 455.93 79.2227 422.251C73.9722 382.461 77.5415 351.355 75.7143 351.246C73.9629 351.141 69.0543 379.618 69.0469 412.14C69.0376 446.518 65.0859 474.195 67.6336 494.064C64.2897 494.264 60.9476 494.463 57.6037 494.663C48.3461 468.387 44.3002 437.08 39.6132 395.683C36.358 366.936 32.5171 328.745 51.7122 289.345C53.6298 285.41 60.3213 276.678 61.5757 274.519C83.5882 278.733 100.679 288.504 122.691 292.719L122.688 292.722Z" fill="url(#paint40_linear_120_1685)"/>
<path style="mix-blend-mode:multiply" opacity="0.25" d="M116.684 368.176C120.192 354.383 124.334 341.614 128.788 329.893C126.754 317.503 124.722 305.112 122.688 292.724C100.675 288.51 83.5845 278.739 61.5721 274.524C60.3176 276.683 53.6262 285.415 51.7085 289.351C45.2387 302.632 41.3923 315.774 39.2529 328.466C81.8387 328 94.1631 336.873 97.555 345.052C102.957 358.071 86.5294 371.274 92.3415 397.624C94.0892 405.549 96.6996 409.452 97.0063 419.381C97.409 432.407 93.1599 433.671 92.493 446.923C91.7651 461.422 86.7455 475.592 89.0992 485.87C90.5624 492.258 92.275 497.454 93.5922 501.055C94.237 500.822 94.8799 500.589 95.5246 500.356C96.1029 465.984 104.006 418 116.682 368.18L116.684 368.176Z" fill="url(#paint41_linear_120_1685)"/>
<path d="M104.44 120.784C105.806 122.61 103.777 125.059 103.373 133.976C103.188 138.056 103.434 141.476 103.707 143.904C103.785 146.102 103.908 148.141 104.08 149.94C104.206 151.261 104.341 152.293 104.531 153.391C104.882 155.428 105.386 157.45 106.027 159.398C106.07 159.528 106.007 159.664 105.883 159.718C105.876 159.722 105.868 159.724 105.861 159.725C105.724 159.77 105.578 159.696 105.532 159.559C104.884 157.587 104.374 155.542 104.017 153.48C103.825 152.367 103.688 151.322 103.563 149.988C103.472 149.04 103.397 148.021 103.332 146.954C103.04 149.766 102.981 152.87 103.979 157.016C107.01 169.6 97.2483 177.883 89.5536 178.216C80.6803 178.6 74.6668 171.565 72.8064 169.262C65.3094 159.982 63.8665 144.86 70.9164 133.801C80.1537 119.313 101.093 116.307 104.439 120.782L104.44 120.784Z" fill="url(#paint42_linear_120_1685)"/>
<path d="M82.0049 132.899C82.3836 131.492 84.1018 125.758 89.3485 122.161C99.3026 115.338 115.259 120.814 124.408 128.847C133.981 137.252 130 143.067 139.409 152.402C149.629 162.539 156.801 158.112 171.008 167.905C176.597 171.757 191.653 182.138 192.66 198.331C193.53 212.323 183.639 226.337 171.536 231.743C150.817 240.999 124.87 224.47 112.628 209.27C100.888 194.691 108.81 191.122 92.116 162.966C86.0804 152.786 79.1691 143.409 82.0067 132.899H82.0049Z" fill="url(#paint43_linear_120_1685)"/>
<path d="M67.0738 173.713C59.5047 181.378 57.467 190.595 56.8702 194.715C55.0154 207.529 60.046 217.98 61.2266 220.727C66.8077 233.699 64.7515 259.267 32.2178 314.325C35.3104 316.904 45.9721 335.997 51.0157 326.841C57.8919 314.358 89.0825 226.536 59.0004 330.612C58.6032 331.984 61.6699 331.708 63.0629 332.227C73.0558 335.96 85.0551 338.679 98.6911 338.509C120.061 338.242 136.346 330.995 144.953 326.336C139.115 312.719 133.004 294.29 130.39 271.923C125.402 229.253 135.781 194.841 143.014 176.284C136.418 171.722 115.527 158.511 90.8117 162.781C84.6542 163.846 75.0455 165.641 67.0719 173.716L67.0738 173.713Z" fill="url(#paint44_linear_120_1685)"/>
<path style="mix-blend-mode:multiply" opacity="0.3" d="M130.39 271.92C125.402 229.25 135.781 194.837 143.013 176.28C136.418 171.718 115.527 158.507 90.8117 162.777C84.6542 163.842 75.0455 165.639 67.0719 173.713C61.0455 179.816 58.5311 186.894 57.454 191.61C57.6388 191.578 57.8937 191.537 58.1967 191.495C73.4179 189.391 90.9983 201.645 97.0099 213.235C107.04 232.577 83.9669 248.381 84.5452 279.036C84.8574 295.608 92.0551 315.201 114.062 337.083C127.894 334.693 138.552 329.799 144.955 326.335C139.117 312.717 133.006 294.288 130.392 271.92H130.39Z" fill="url(#paint45_linear_120_1685)"/>
<path d="M96.5906 147.431C94.4217 151.834 92.5909 157.345 94.9796 161.04C96.4336 163.291 98.8427 164.544 101.22 165.727C106.84 168.52 109.447 167.385 110.556 169.081C112.996 172.811 106.085 187.042 94.8097 188.279C83.5882 189.508 73.4327 177.277 75.1213 172.108C76.6455 167.446 87.6914 168.909 89.6663 163.016C90.6603 160.049 88.8405 156.755 87.2425 154.526L85.9215 154.642L96.5906 147.433V147.431Z" fill="url(#paint46_linear_120_1685)"/>
<path style="mix-blend-mode:multiply" opacity="0.4" d="M110.556 169.079C109.447 167.384 106.838 168.519 101.22 165.726C98.8426 164.544 96.4354 163.289 94.9796 161.038C92.5927 157.343 94.4235 151.834 96.5906 147.431L85.9215 154.64L87.2424 154.526C88.5098 156.297 89.8954 158.737 89.925 161.151C90.7009 161.687 91.3549 162.276 91.8186 162.848C90.3462 166.023 89.8474 168.766 89.6571 170.539C89.3578 173.304 89.1361 175.358 90.3222 177.299C91.6154 179.415 93.8268 180.158 95.7592 180.805C100.053 182.247 104.065 181.768 106.702 181.136C110.347 176.58 111.926 171.173 110.556 169.081V169.079Z" fill="url(#paint47_linear_120_1685)"/>
<path d="M94.6212 151.675C94.6212 151.675 94.9944 157.33 89.4945 158.276C82.718 159.443 78.9825 141.66 80.4623 140.363C82.1767 138.858 84.3346 141.485 88.617 139.729C90.4201 138.989 91.6394 136.307 93.0213 138.749C94.5953 141.526 94.5528 146.914 94.5528 146.914C94.5528 146.914 95.9421 145.315 96.4576 146.875C97.13 148.916 95.7777 150.485 94.6212 151.677V151.675Z" fill="url(#paint48_linear_120_1685)"/>
<path d="M84.51 131.08C82.1102 133.069 80.4678 137.243 81.7481 139.559C83.5882 142.886 90.3166 140.309 92.5373 144.376C93.5109 146.16 93.206 148.461 93.8028 148.485C94.2979 148.505 94.7542 146.934 95.1754 145.648C97.4903 138.551 99.3821 137.923 99.0477 135.788C98.366 131.448 89.4391 126.995 84.51 131.08Z" fill="url(#paint49_linear_120_1685)"/>
<path d="M124.338 175.67C131.812 176.145 132.562 173.901 140.835 179.966C164.592 197.379 180.001 246.496 156.445 270.234C143.342 283.437 119.429 291.499 99.0865 281.421C82.5259 273.217 76.4182 256.999 74.9365 252.655C75.2099 248.302 75.4815 243.949 75.7549 239.596C85.0569 249.636 93.0472 252.173 98.8445 252.483C108.712 253.012 112.809 247.121 129.688 246.189C136.263 245.827 139.936 246.485 140.702 244.694C142.287 240.993 127.938 235.03 121.182 224.059C116.257 216.063 113.271 202.005 124.341 175.668L124.338 175.67Z" fill="url(#paint50_linear_120_1685)"/>
<path d="M95.181 138.934C93.4961 140.431 96.2488 146.256 101.823 157.844C105.253 164.975 106.968 168.541 108.145 170.129C114.474 178.672 125.895 185.931 138.144 186.517C146.55 186.918 148.107 183.831 154.839 185.685C164.995 188.482 169.988 197.857 170.506 197.445C171.076 196.989 165.562 185.079 153.128 174.336C142.956 165.544 139.734 167.544 123.599 155.156C122.427 154.258 117.474 150.431 110.426 145.973C102.14 140.733 96.8603 137.444 95.1828 138.934H95.181Z" fill="url(#paint51_linear_120_1685)"/>
<path d="M29.042 204.532L46.3195 247.298C46.6132 248.091 47.2543 248.703 48.0579 248.958L67.9754 255.287C70.0334 255.942 72.001 254.067 71.4523 251.978L60.8054 211.547C60.5615 210.621 59.865 208.569 58.1007 208.007L33.8399 200.991C31.6784 200.349 28.2587 202.414 29.042 204.53V204.532Z" fill="url(#paint52_linear_120_1685)"/>
<path d="M28.8222 205.209L44.1191 246.598C44.4129 247.391 45.0539 248.002 45.8576 248.258L65.775 254.587C67.8331 255.241 69.8006 253.367 69.2519 251.278L58.6051 210.847C58.3612 209.92 57.6536 209.19 56.7354 208.919L32.1679 201.632C30.0064 200.991 28.0389 203.092 28.8222 205.209Z" fill="url(#paint53_linear_120_1685)"/>
<path d="M76.8173 243.097L74.7222 241.139C74.7222 241.139 71.7441 237.065 69.5013 235.091C67.2585 233.117 65.0619 232.719 62.6805 234.62C60.2991 236.518 62.3221 239.66 64.0439 242.4C65.0915 244.067 68.0437 245.124 70.5008 245.764C72.2282 246.213 75.2543 248.47 75.2543 248.47L76.8191 243.097H76.8173Z" fill="url(#paint54_linear_120_1685)"/>
<path d="M31.1463 224.386L33.1193 222.305C33.1193 222.305 37.217 219.361 39.2067 217.131C41.1964 214.904 41.6121 212.708 39.7332 210.31C37.8544 207.913 34.6989 209.911 31.9462 211.612C30.2706 212.647 29.1917 215.591 28.5321 218.044C28.0684 219.769 25.7886 222.778 25.7886 222.778L31.1463 224.386Z" fill="url(#paint55_linear_120_1685)"/>
<path d="M25.4598 220.183C28.013 221.457 30.568 222.73 33.1212 224.006C33.9027 225 43.2083 237.222 38.2405 248.943C37.5939 250.468 35.1516 256.232 30.3334 257.252C22.8974 258.827 12.0658 248.629 12.4168 237.682C12.6514 230.346 17.8779 223.606 25.4598 220.183Z" fill="url(#paint56_linear_120_1685)"/>
<defs>
<linearGradient id="paint0_linear_120_1685" x1="83.6578" y1="98.3865" x2="141.793" y2="281.817" gradientUnits="userSpaceOnUse">
<stop stop-color="#FF9085"/>
<stop offset="1" stop-color="#FB6FBB"/>
</linearGradient>
<linearGradient id="paint1_linear_120_1685" x1="84.0743" y1="27.8779" x2="177.634" y2="296.482" gradientUnits="userSpaceOnUse">
<stop stop-color="#FFC444"/>
<stop offset="1" stop-color="#F36F56"/>
</linearGradient>
<linearGradient id="paint2_linear_120_1685" x1="450.985" y1="48.7509" x2="313.392" y2="349.453" gradientUnits="userSpaceOnUse">
<stop stop-color="#AA80F9"/>
<stop offset="1" stop-color="#6165D7"/>
</linearGradient>
<linearGradient id="paint3_linear_120_1685" x1="423.44" y1="235.472" x2="327.265" y2="402.12" gradientUnits="userSpaceOnUse">
<stop stop-color="#FFC444"/>
<stop offset="1" stop-color="#F36F56"/>
</linearGradient>
<linearGradient id="paint4_linear_120_1685" x1="437.57" y1="415.682" x2="215.29" y2="226.169" gradientUnits="userSpaceOnUse">
<stop stop-color="#444B8C"/>
<stop offset="1" stop-color="#26264F"/>
</linearGradient>
<linearGradient id="paint5_linear_120_1685" x1="252.037" y1="481.964" x2="282.526" y2="-337.21" gradientUnits="userSpaceOnUse">
<stop stop-color="#444B8C"/>
<stop offset="1" stop-color="#26264F"/>
</linearGradient>
<linearGradient id="paint6_linear_120_1685" x1="215.62" y1="30.4164" x2="429.679" y2="467.881" gradientUnits="userSpaceOnUse">
<stop stop-color="#6AB541" stop-opacity="0.27"/>
<stop offset="1" stop-color="#6AB541"/>
</linearGradient>
<linearGradient id="paint7_linear_120_1685" x1="186.281" y1="44.7734" x2="400.339" y2="482.238" gradientUnits="userSpaceOnUse">
<stop stop-color="#6AB541" stop-opacity="0.27"/>
<stop offset="1" stop-color="#6AB541"/>
</linearGradient>
<linearGradient id="paint8_linear_120_1685" x1="132.9" y1="70.8924" x2="346.96" y2="508.357" gradientUnits="userSpaceOnUse">
<stop stop-color="#AA80F9"/>
<stop offset="1" stop-color="#6165D7"/>
</linearGradient>
<linearGradient id="paint9_linear_120_1685" x1="65.9875" y1="103.634" x2="280.046" y2="541.099" gradientUnits="userSpaceOnUse">
<stop stop-color="#AA80F9"/>
<stop offset="1" stop-color="#6165D7"/>
</linearGradient>
<linearGradient id="paint10_linear_120_1685" x1="89.1343" y1="92.3083" x2="303.193" y2="529.773" gradientUnits="userSpaceOnUse">
<stop stop-color="#AA80F9"/>
<stop offset="1" stop-color="#6165D7"/>
</linearGradient>
<linearGradient id="paint11_linear_120_1685" x1="112.091" y1="81.0755" x2="326.149" y2="518.538" gradientUnits="userSpaceOnUse">
<stop stop-color="#AA80F9"/>
<stop offset="1" stop-color="#6165D7"/>
</linearGradient>
<linearGradient id="paint12_linear_120_1685" x1="134.864" y1="69.9328" x2="348.924" y2="507.398" gradientUnits="userSpaceOnUse">
<stop stop-color="#AA80F9"/>
<stop offset="1" stop-color="#6165D7"/>
</linearGradient>
<linearGradient id="paint13_linear_120_1685" x1="157.455" y1="58.8774" x2="371.513" y2="496.342" gradientUnits="userSpaceOnUse">
<stop stop-color="#AA80F9"/>
<stop offset="1" stop-color="#6165D7"/>
</linearGradient>
<linearGradient id="paint14_linear_120_1685" x1="250.349" y1="252.71" x2="390.567" y2="252.71" gradientUnits="userSpaceOnUse">
<stop stop-color="#FF9085"/>
<stop offset="1" stop-color="#FB6FBB"/>
</linearGradient>
<linearGradient id="paint15_linear_120_1685" x1="129.2" y1="313.081" x2="248.553" y2="317.518" gradientUnits="userSpaceOnUse">
<stop stop-color="#FF9085"/>
<stop offset="1" stop-color="#FB6FBB"/>
</linearGradient>
<linearGradient id="paint16_linear_120_1685" x1="389.307" y1="382.326" x2="403.085" y2="363.484" gradientUnits="userSpaceOnUse">
<stop stop-color="#AA80F9"/>
<stop offset="1" stop-color="#6165D7"/>
</linearGradient>
<linearGradient id="paint17_linear_120_1685" x1="536.277" y1="509.815" x2="513.985" y2="518.127" gradientUnits="userSpaceOnUse">
<stop stop-color="#444B8C"/>
<stop offset="1" stop-color="#26264F"/>
</linearGradient>
<linearGradient id="paint18_linear_120_1685" x1="522.564" y1="513.088" x2="503.112" y2="500.696" gradientUnits="userSpaceOnUse">
<stop stop-color="#FFC444"/>
<stop offset="1" stop-color="#F36F56"/>
</linearGradient>
<linearGradient id="paint19_linear_120_1685" x1="505.24" y1="529.66" x2="483.129" y2="538.441" gradientUnits="userSpaceOnUse">
<stop stop-color="#444B8C"/>
<stop offset="1" stop-color="#26264F"/>
</linearGradient>
<linearGradient id="paint20_linear_120_1685" x1="491.388" y1="533.578" x2="471.936" y2="521.186" gradientUnits="userSpaceOnUse">
<stop stop-color="#FFC444"/>
<stop offset="1" stop-color="#F36F56"/>
</linearGradient>
<linearGradient id="paint21_linear_120_1685" x1="304.748" y1="464.459" x2="360.323" y2="388.454" gradientUnits="userSpaceOnUse">
<stop stop-color="#AA80F9"/>
<stop offset="1" stop-color="#6165D7"/>
</linearGradient>
<linearGradient id="paint22_linear_120_1685" x1="306.682" y1="464.658" x2="364.097" y2="391.916" gradientUnits="userSpaceOnUse">
<stop stop-color="#AA80F9"/>
<stop offset="1" stop-color="#6165D7"/>
</linearGradient>
<linearGradient id="paint23_linear_120_1685" x1="277.314" y1="431.221" x2="326.115" y2="356.866" gradientUnits="userSpaceOnUse">
<stop stop-color="#AA80F9"/>
<stop offset="1" stop-color="#6165D7"/>
</linearGradient>
<linearGradient id="paint24_linear_120_1685" x1="409.892" y1="534.876" x2="449.802" y2="412.185" gradientUnits="userSpaceOnUse">
<stop stop-color="#444B8C"/>
<stop offset="1" stop-color="#26264F"/>
</linearGradient>
<linearGradient id="paint25_linear_120_1685" x1="421.044" y1="433.193" x2="370.831" y2="558.765" gradientUnits="userSpaceOnUse">
<stop stop-color="#444B8C"/>
<stop offset="1" stop-color="#26264F"/>
</linearGradient>
<linearGradient id="paint26_linear_120_1685" x1="387.204" y1="469.634" x2="367.323" y2="435.932" gradientUnits="userSpaceOnUse">
<stop stop-color="#311944"/>
<stop offset="1" stop-color="#893976"/>
</linearGradient>
<linearGradient id="paint27_linear_120_1685" x1="321.12" y1="428.099" x2="332.154" y2="459.561" gradientUnits="userSpaceOnUse">
<stop stop-color="#311944"/>
<stop offset="1" stop-color="#893976"/>
</linearGradient>
<linearGradient id="paint28_linear_120_1685" x1="323.875" y1="434.346" x2="350.353" y2="429.164" gradientUnits="userSpaceOnUse">
<stop stop-color="#FFC444"/>
<stop offset="1" stop-color="#F36F56"/>
</linearGradient>
<linearGradient id="paint29_linear_120_1685" x1="416.358" y1="420.634" x2="388.295" y2="386.614" gradientUnits="userSpaceOnUse">
<stop stop-color="#444B8C"/>
<stop offset="1" stop-color="#26264F"/>
</linearGradient>
<linearGradient id="paint30_linear_120_1685" x1="372.333" y1="483.841" x2="419.208" y2="367.073" gradientUnits="userSpaceOnUse">
<stop stop-color="#311944"/>
<stop offset="1" stop-color="#893976"/>
</linearGradient>
<linearGradient id="paint31_linear_120_1685" x1="339.779" y1="413.648" x2="461.466" y2="404.396" gradientUnits="userSpaceOnUse">
<stop stop-color="#311944"/>
<stop offset="1" stop-color="#893976"/>
</linearGradient>
<linearGradient id="paint32_linear_120_1685" x1="332.416" y1="362.419" x2="361.017" y2="296.709" gradientUnits="userSpaceOnUse">
<stop stop-color="#FFC444"/>
<stop offset="1" stop-color="#F36F56"/>
</linearGradient>
<linearGradient id="paint33_linear_120_1685" x1="324.232" y1="349.32" x2="362.902" y2="291.435" gradientUnits="userSpaceOnUse">
<stop stop-color="#444B8C"/>
<stop offset="1" stop-color="#26264F"/>
</linearGradient>
<linearGradient id="paint34_linear_120_1685" x1="351.616" y1="312.283" x2="340.518" y2="378.919" gradientUnits="userSpaceOnUse">
<stop stop-color="#FFC444"/>
<stop offset="1" stop-color="#F36F56"/>
</linearGradient>
<linearGradient id="paint35_linear_120_1685" x1="333.926" y1="344.861" x2="361.591" y2="303.449" gradientUnits="userSpaceOnUse">
<stop stop-color="#444B8C"/>
<stop offset="1" stop-color="#26264F"/>
</linearGradient>
<linearGradient id="paint36_linear_120_1685" x1="357.287" y1="321.356" x2="354.566" y2="329.422" gradientUnits="userSpaceOnUse">
<stop stop-color="#FFC444"/>
<stop offset="1" stop-color="#F36F56"/>
</linearGradient>
<linearGradient id="paint37_linear_120_1685" x1="24.9684" y1="166.491" x2="59.6227" y2="229.403" gradientUnits="userSpaceOnUse">
<stop stop-color="#AA80F9"/>
<stop offset="1" stop-color="#6165D7"/>
</linearGradient>
<linearGradient id="paint38_linear_120_1685" x1="52.0388" y1="495.309" x2="67.1429" y2="496.939" gradientUnits="userSpaceOnUse">
<stop stop-color="#AA80F9"/>
<stop offset="1" stop-color="#6165D7"/>
</linearGradient>
<linearGradient id="paint39_linear_120_1685" x1="80.4042" y1="502.818" x2="95.5065" y2="504.447" gradientUnits="userSpaceOnUse">
<stop stop-color="#AA80F9"/>
<stop offset="1" stop-color="#6165D7"/>
</linearGradient>
<linearGradient id="paint40_linear_120_1685" x1="37.4857" y1="389.61" x2="129.826" y2="387.999" gradientUnits="userSpaceOnUse">
<stop stop-color="#444B8C"/>
<stop offset="1" stop-color="#26264F"/>
</linearGradient>
<linearGradient id="paint41_linear_120_1685" x1="33.5628" y1="383.215" x2="122.291" y2="392.411" gradientUnits="userSpaceOnUse">
<stop stop-color="#444B8C"/>
<stop offset="1" stop-color="#26264F"/>
</linearGradient>
<linearGradient id="paint42_linear_120_1685" x1="232.096" y1="241.525" x2="68.9924" y2="132.773" gradientUnits="userSpaceOnUse">
<stop stop-color="#311944"/>
<stop offset="1" stop-color="#6B3976"/>
</linearGradient>
<linearGradient id="paint43_linear_120_1685" x1="229.739" y1="245.057" x2="66.6372" y2="136.305" gradientUnits="userSpaceOnUse">
<stop stop-color="#311944"/>
<stop offset="1" stop-color="#6B3976"/>
</linearGradient>
<linearGradient id="paint44_linear_120_1685" x1="68.5448" y1="225.79" x2="191.169" y2="355.713" gradientUnits="userSpaceOnUse">
<stop stop-color="#AA80F9"/>
<stop offset="1" stop-color="#6165D7"/>
</linearGradient>
<linearGradient id="paint45_linear_120_1685" x1="79.0962" y1="217.651" x2="212.038" y2="322.513" gradientUnits="userSpaceOnUse">
<stop stop-color="#AA80F9"/>
<stop offset="1" stop-color="#6165D7"/>
</linearGradient>
<linearGradient id="paint46_linear_120_1685" x1="93.6811" y1="204.445" x2="92.1209" y2="130.698" gradientUnits="userSpaceOnUse">
<stop stop-color="#FFC444"/>
<stop offset="1" stop-color="#F36F56"/>
</linearGradient>
<linearGradient id="paint47_linear_120_1685" x1="94.0734" y1="194.178" x2="102.56" y2="134.368" gradientUnits="userSpaceOnUse">
<stop stop-color="#FFC444"/>
<stop offset="1" stop-color="#F36F56"/>
</linearGradient>
<linearGradient id="paint48_linear_120_1685" x1="87.706" y1="141.437" x2="98.5282" y2="203.031" gradientUnits="userSpaceOnUse">
<stop stop-color="#FFC444"/>
<stop offset="1" stop-color="#F36F56"/>
</linearGradient>
<linearGradient id="paint49_linear_120_1685" x1="236.638" y1="234.713" x2="73.5357" y2="125.962" gradientUnits="userSpaceOnUse">
<stop stop-color="#311944"/>
<stop offset="1" stop-color="#6B3976"/>
</linearGradient>
<linearGradient id="paint50_linear_120_1685" x1="107.99" y1="218.212" x2="173.146" y2="295.767" gradientUnits="userSpaceOnUse">
<stop stop-color="#AA80F9"/>
<stop offset="1" stop-color="#6165D7"/>
</linearGradient>
<linearGradient id="paint51_linear_120_1685" x1="232.301" y1="241.212" x2="69.2013" y2="132.461" gradientUnits="userSpaceOnUse">
<stop stop-color="#311944"/>
<stop offset="1" stop-color="#6B3976"/>
</linearGradient>
<linearGradient id="paint52_linear_120_1685" x1="84.7898" y1="206.701" x2="63.5017" y2="220.051" gradientUnits="userSpaceOnUse">
<stop stop-color="#FFC444"/>
<stop offset="1" stop-color="#F36F56"/>
</linearGradient>
<linearGradient id="paint53_linear_120_1685" x1="23.5835" y1="219.779" x2="108.603" y2="246.767" gradientUnits="userSpaceOnUse">
<stop stop-color="#FF9085"/>
<stop offset="1" stop-color="#FB6FBB"/>
</linearGradient>
<linearGradient id="paint54_linear_120_1685" x1="63.5021" y1="234.018" x2="82.9092" y2="258.359" gradientUnits="userSpaceOnUse">
<stop stop-color="#FFC444"/>
<stop offset="1" stop-color="#F36F56"/>
</linearGradient>
<linearGradient id="paint55_linear_120_1685" x1="40.3203" y1="211.129" x2="15.8156" y2="230.325" gradientUnits="userSpaceOnUse">
<stop stop-color="#FFC444"/>
<stop offset="1" stop-color="#F36F56"/>
</linearGradient>
<linearGradient id="paint56_linear_120_1685" x1="38.8617" y1="226.351" x2="2.78287" y2="265.656" gradientUnits="userSpaceOnUse">
<stop stop-color="#AA80F9"/>
<stop offset="1" stop-color="#6165D7"/>
</linearGradient>
</defs>
</svg>
