<svg width="31" height="30" viewBox="0 0 31 30" fill="none" xmlns="http://www.w3.org/2000/svg">
<path fill-rule="evenodd" clip-rule="evenodd" d="M14.6783 14.3895C14.142 14.3895 13.718 14.8063 13.718 15.3334C13.718 15.8483 14.142 16.2773 14.6783 16.2773H22.1615V22.1368C22.1615 25.14 19.6796 27.5917 16.6115 27.5917H10.5376C7.48194 27.5917 5 25.1523 5 22.149V8.53011C5 5.51458 7.49441 3.0752 10.5501 3.0752H16.6364C19.6796 3.0752 22.1615 5.51458 22.1615 8.51785V14.3895H14.6783ZM26.6116 11.0921L30.191 14.6592C30.3749 14.8431 30.4729 15.076 30.4729 15.3334C30.4729 15.5786 30.3749 15.8238 30.191 15.9954L26.6116 19.5625C26.4277 19.7464 26.1825 19.8445 25.9496 19.8445C25.7045 19.8445 25.4593 19.7464 25.2754 19.5625C24.9077 19.1948 24.9077 18.5941 25.2754 18.2264L27.2367 16.2773H22.1618V14.3895H27.2367L25.2754 12.4405C24.9077 12.0727 24.9077 11.4721 25.2754 11.1043C25.6432 10.7243 26.2438 10.7243 26.6116 11.0921Z" fill="#606060"/>
</svg>
