<svg width="30" height="30" viewBox="0 0 30 30" fill="none" xmlns="http://www.w3.org/2000/svg">
<path fill-rule="evenodd" clip-rule="evenodd" d="M25.5029 16.975C25.95 17.2125 26.2949 17.5875 26.5377 17.9625C27.0103 18.7375 26.972 19.6875 26.5121 20.525L25.6179 22.025C25.1452 22.825 24.2638 23.325 23.3568 23.325C22.9097 23.325 22.4115 23.2 22.0027 22.95C21.6706 22.7375 21.2874 22.6625 20.8786 22.6625C19.6139 22.6625 18.5536 23.7 18.5153 24.9375C18.5153 26.375 17.34 27.5 15.871 27.5H14.1337C12.6518 27.5 11.4766 26.375 11.4766 24.9375C11.451 23.7 10.3907 22.6625 9.12606 22.6625C8.70451 22.6625 8.32127 22.7375 8.00191 22.95C7.59313 23.2 7.08215 23.325 6.64782 23.325C5.72806 23.325 4.84662 22.825 4.37396 22.025L3.49252 20.525C3.01987 19.7125 2.99432 18.7375 3.46698 17.9625C3.67137 17.5875 4.0546 17.2125 4.48893 16.975C4.84662 16.8 5.07656 16.5125 5.29372 16.175C5.93245 15.1 5.54921 13.6875 4.46338 13.05C3.19871 12.3375 2.78993 10.75 3.51807 9.5125L4.37396 8.0375C5.11488 6.8 6.69892 6.3625 7.97636 7.0875C9.08774 7.6875 10.5313 7.2875 11.1828 6.225C11.3871 5.875 11.5021 5.5 11.4766 5.125C11.451 4.6375 11.5915 4.175 11.8343 3.8C12.3069 3.025 13.1628 2.525 14.0953 2.5H15.8965C16.8418 2.5 17.6977 3.025 18.1704 3.8C18.4003 4.175 18.5536 4.6375 18.5153 5.125C18.4897 5.5 18.6047 5.875 18.8091 6.225C19.4606 7.2875 20.9041 7.6875 22.0283 7.0875C23.2929 6.3625 24.8898 6.8 25.6179 8.0375L26.4738 9.5125C27.2147 10.75 26.8059 12.3375 25.5285 13.05C24.4427 13.6875 24.0594 15.1 24.7109 16.175C24.9153 16.5125 25.1452 16.8 25.5029 16.975ZM11.3871 15.0125C11.3871 16.975 13.0095 18.5375 15.0151 18.5375C17.0207 18.5375 18.6047 16.975 18.6047 15.0125C18.6047 13.05 17.0207 11.475 15.0151 11.475C13.0095 11.475 11.3871 13.05 11.3871 15.0125Z" fill="#606060"/>
</svg>
